<?xml version="1.0" encoding="UTF-8"?>
<svg width="91px" height="92px" viewBox="0 0 91 92" version="1.1" xmlns="http://www.w3.org/2000/svg" xmlns:xlink="http://www.w3.org/1999/xlink">
    <!-- Generator: Sketch 55 (78076) - https://sketchapp.com -->
    <title>Group</title>
    <desc>Created with Sketch.</desc>
    <g id="Page-1" stroke="none" stroke-width="1" fill="none" fill-rule="evenodd">
        <g id="Group" transform="translate(0.000000, -0.000000)" fill="#4D716D" fill-rule="nonzero">
            <path d="M10.226046,3.00010617 C10.1942546,3.00047126 10.1616434,3.00187449 10.1292462,3.00416055 C8.83893264,3.20472295 8.12946839,4.43339186 8.02666429,5.5168667 C7.87644179,6.50001979 8.35756836,7.76366184 9.55632638,7.98396099 C9.73020585,8.01377209 9.91087842,8.00014773 10.0808463,7.95862108 C11.5243574,7.52274532 12.1703444,5.98322496 11.9616891,4.70801656 C11.9010346,3.88441198 11.2115819,2.98878829 10.226046,3.00010617 Z M4.6172097,3.00032904 C3.81174802,3.01822107 3.18431255,3.75747536 3.05667999,4.45239002 C2.7876171,5.82916634 3.47969189,7.53981852 5.06468962,7.97517177 C5.2131517,8.00438969 5.36671596,8.00739852 5.51668953,7.98642013 C6.58797995,7.82485278 7.04180956,6.73793073 6.99698925,5.86048014 C6.96474538,4.70300348 6.30033444,3.36463192 4.97202963,3.03918701 C4.85061197,3.01005049 4.7322755,2.99777304 4.6172097,3.00032904 Z M13.5354351,7 C12.1348695,7.08277917 11.1746697,8.46333034 11.0377872,9.75246858 C10.8524374,10.6822244 11.354175,11.9257738 12.4280196,12 C13.9253525,11.9817666 14.9468317,10.4011293 14.9892728,9.04106822 C15.0839831,8.14156014 14.5476333,7.04966607 13.5354351,7 Z M1.5134873,7.00005462 C0.916464762,6.99491524 0.329290318,7.35271731 0.134188501,7.95993064 C-0.386310613,9.58423671 0.658919286,11.6414147 2.37839414,11.9827562 C3.09601553,12.105624 3.72656904,11.5542311 3.90449949,10.8907976 C4.28158431,9.47178251 3.50706661,7.8241042 2.19630849,7.17996021 C1.98276128,7.06005072 1.74710479,7.00206556 1.5134873,7.00005462 Z M7.89254999,10.0000078 C6.73446705,10.0024808 5.55822268,10.5909376 4.80833702,11.466898 C3.99840536,12.4878697 3.33493226,13.6759691 3.07536741,14.9644331 C2.76002685,15.8919317 3.47473694,16.9593298 4.464896,16.9657629 C5.65611251,16.9988955 6.67988114,16.1798273 7.86439908,16.1190031 C8.86936741,15.9656004 9.76922342,16.4890139 10.6727332,16.8315892 C11.4420159,17.1610494 12.50503,17.0347918 12.8977806,16.2058213 C13.2067145,15.3608674 12.751994,14.4598951 12.3752998,13.7095148 C11.6069937,12.4915517 10.7838919,11.2114656 9.52417634,10.4510117 C9.01924697,10.1376289 8.45812533,9.9988002 7.89254999,10.0000078 Z" id="path1575"></path>
            <path d="M59.226046,28.0001062 C59.1942546,28.0004713 59.1616434,28.0018745 59.1292462,28.0041606 C57.8389326,28.204723 57.1294684,29.4333919 57.0266643,30.5168667 C56.8764418,31.5000198 57.3575684,32.7636618 58.5563264,32.983961 C58.7302059,33.0137721 58.9108784,33.0001477 59.0808463,32.9586211 C60.5243574,32.5227453 61.1703444,30.983225 60.9616891,29.7080166 C60.9010346,28.884412 60.2115819,27.9887883 59.226046,28.0001062 Z M53.6172097,28.000329 C52.811748,28.0182211 52.1843125,28.7574754 52.05668,29.45239 C51.7876171,30.8291663 52.4796919,32.5398185 54.0646896,32.9751718 C54.2131517,33.0043897 54.366716,33.0073985 54.5166895,32.9864201 C55.58798,32.8248528 56.0418096,31.7379307 55.9969893,30.8604801 C55.9647454,29.7030035 55.3003344,28.3646319 53.9720296,28.039187 C53.850612,28.0100505 53.7322755,27.997773 53.6172097,28.000329 Z M62.5354351,32 C61.1348695,32.0827792 60.1746697,33.4633303 60.0377872,34.7524686 C59.8524374,35.6822244 60.354175,36.9257738 61.4280196,37 C62.9253525,36.9817666 63.9468317,35.4011293 63.9892728,34.0410682 C64.0839831,33.1415601 63.5476333,32.0496661 62.5354351,32 Z M50.5134873,32.0000546 C49.9164648,31.9949152 49.3292903,32.3527173 49.1341885,32.9599306 C48.6136894,34.5842367 49.6589193,36.6414147 51.3783941,36.9827562 C52.0960155,37.105624 52.726569,36.5542311 52.9044995,35.8907976 C53.2815843,34.4717825 52.5070666,32.8241042 51.1963085,32.1799602 C50.9827613,32.0600507 50.7471048,32.0020656 50.5134873,32.0000546 Z M56.89255,35.0000078 C55.734467,35.0024808 54.5582227,35.5909376 53.808337,36.466898 C52.9984054,37.4878697 52.3349323,38.6759691 52.0753674,39.9644331 C51.7600269,40.8919317 52.4747369,41.9593298 53.464896,41.9657629 C54.6561125,41.9988955 55.6798811,41.1798273 56.8643991,41.1190031 C57.8693674,40.9656004 58.7692234,41.4890139 59.6727332,41.8315892 C60.4420159,42.1610494 61.50503,42.0347918 61.8977806,41.2058213 C62.2067145,40.3608674 61.751994,39.4598951 61.3752998,38.7095148 C60.6069937,37.4915517 59.7838919,36.2114656 58.5241763,35.4510117 C58.019247,35.1376289 57.4581253,34.9988002 56.89255,35.0000078 Z" id="path1575-copy"></path>
            <path d="M33.226046,49.0001062 C33.1942546,49.0004713 33.1616434,49.0018745 33.1292462,49.0041606 C31.8389326,49.204723 31.1294684,50.4333919 31.0266643,51.5168667 C30.8764418,52.5000198 31.3575684,53.7636618 32.5563264,53.983961 C32.7302059,54.0137721 32.9108784,54.0001477 33.0808463,53.9586211 C34.5243574,53.5227453 35.1703444,51.983225 34.9616891,50.7080166 C34.9010346,49.884412 34.2115819,48.9887883 33.226046,49.0001062 Z M27.6172097,49.000329 C26.811748,49.0182211 26.1843125,49.7574754 26.05668,50.45239 C25.7876171,51.8291663 26.4796919,53.5398185 28.0646896,53.9751718 C28.2131517,54.0043897 28.366716,54.0073985 28.5166895,53.9864201 C29.58798,53.8248528 30.0418096,52.7379307 29.9969893,51.8604801 C29.9647454,50.7030035 29.3003344,49.3646319 27.9720296,49.039187 C27.850612,49.0100505 27.7322755,48.997773 27.6172097,49.000329 Z M36.5354351,53 C35.1348695,53.0827792 34.1746697,54.4633303 34.0377872,55.7524686 C33.8524374,56.6822244 34.354175,57.9257738 35.4280196,58 C36.9253525,57.9817666 37.9468317,56.4011293 37.9892728,55.0410682 C38.0839831,54.1415601 37.5476333,53.0496661 36.5354351,53 Z M24.5134873,53.0000546 C23.9164648,52.9949152 23.3292903,53.3527173 23.1341885,53.9599306 C22.6136894,55.5842367 23.6589193,57.6414147 25.3783941,57.9827562 C26.0960155,58.105624 26.726569,57.5542311 26.9044995,56.8907976 C27.2815843,55.4717825 26.5070666,53.8241042 25.1963085,53.1799602 C24.9827613,53.0600507 24.7471048,53.0020656 24.5134873,53.0000546 Z M30.89255,56.0000078 C29.734467,56.0024808 28.5582227,56.5909376 27.808337,57.466898 C26.9984054,58.4878697 26.3349323,59.6759691 26.0753674,60.9644331 C25.7600269,61.8919317 26.4747369,62.9593298 27.464896,62.9657629 C28.6561125,62.9988955 29.6798811,62.1798273 30.8643991,62.1190031 C31.8693674,61.9656004 32.7692234,62.4890139 33.6727332,62.8315892 C34.4420159,63.1610494 35.50503,63.0347918 35.8977806,62.2058213 C36.2067145,61.3608674 35.751994,60.4598951 35.3752998,59.7095148 C34.6069937,58.4915517 33.7838919,57.2114656 32.5241763,56.4510117 C32.019247,56.1376289 31.4581253,55.9988002 30.89255,56.0000078 Z" id="path1575-copy-2"></path>
            <path d="M86.226046,78.0001062 C86.1942546,78.0004713 86.1616434,78.0018745 86.1292462,78.0041606 C84.8389326,78.204723 84.1294684,79.4333919 84.0266643,80.5168667 C83.8764418,81.5000198 84.3575684,82.7636618 85.5563264,82.983961 C85.7302059,83.0137721 85.9108784,83.0001477 86.0808463,82.9586211 C87.5243574,82.5227453 88.1703444,80.983225 87.9616891,79.7080166 C87.9010346,78.884412 87.2115819,77.9887883 86.226046,78.0001062 Z M80.6172097,78.000329 C79.811748,78.0182211 79.1843125,78.7574754 79.05668,79.45239 C78.7876171,80.8291663 79.4796919,82.5398185 81.0646896,82.9751718 C81.2131517,83.0043897 81.366716,83.0073985 81.5166895,82.9864201 C82.58798,82.8248528 83.0418096,81.7379307 82.9969893,80.8604801 C82.9647454,79.7030035 82.3003344,78.3646319 80.9720296,78.039187 C80.850612,78.0100505 80.7322755,77.997773 80.6172097,78.000329 Z M89.5354351,82 C88.1348695,82.0827792 87.1746697,83.4633303 87.0377872,84.7524686 C86.8524374,85.6822244 87.354175,86.9257738 88.4280196,87 C89.9253525,86.9817666 90.9468317,85.4011293 90.9892728,84.0410682 C91.0839831,83.1415601 90.5476333,82.0496661 89.5354351,82 Z M77.5134873,82.0000546 C76.9164648,81.9949152 76.3292903,82.3527173 76.1341885,82.9599306 C75.6136894,84.5842367 76.6589193,86.6414147 78.3783941,86.9827562 C79.0960155,87.105624 79.726569,86.5542311 79.9044995,85.8907976 C80.2815843,84.4717825 79.5070666,82.8241042 78.1963085,82.1799602 C77.9827613,82.0600507 77.7471048,82.0020656 77.5134873,82.0000546 Z M83.89255,85.0000078 C82.734467,85.0024808 81.5582227,85.5909376 80.808337,86.466898 C79.9984054,87.4878697 79.3349323,88.6759691 79.0753674,89.9644331 C78.7600269,90.8919317 79.4747369,91.9593298 80.464896,91.9657629 C81.6561125,91.9988955 82.6798811,91.1798273 83.8643991,91.1190031 C84.8693674,90.9656004 85.7692234,91.4890139 86.6727332,91.8315892 C87.4420159,92.1610494 88.50503,92.0347918 88.8977806,91.2058213 C89.2067145,90.3608674 88.751994,89.4598951 88.3752998,88.7095148 C87.6069937,87.4915517 86.7838919,86.2114656 85.5241763,85.4510117 C85.019247,85.1376289 84.4581253,84.9988002 83.89255,85.0000078 Z" id="path1575-copy-3"></path>
            <path d="M88.4538912,40.0000566 C88.4369358,40.0002513 88.4195432,40.0009997 88.4022646,40.002219 C87.7140974,40.1091856 87.3357165,40.7644757 87.2808876,41.3423289 C87.200769,41.8666772 87.4573698,42.5406196 88.0967074,42.6581125 C88.1894431,42.6740118 88.2858018,42.6667455 88.3764513,42.6445979 C89.146324,42.4121308 89.4908504,41.5910533 89.3795675,40.9109422 C89.3472184,40.4716864 88.9795103,39.9940204 88.4538912,40.0000566 Z M85.4625118,40.0001755 C85.0329323,40.0097179 84.6983,40.4039869 84.6302293,40.774608 C84.4867291,41.5088887 84.8558357,42.4212365 85.7011678,42.6534249 C85.7803476,42.6690078 85.8622485,42.6706125 85.9422344,42.6594241 C86.5135893,42.5732548 86.7556318,41.9935631 86.7317276,41.5255894 C86.7145309,40.9082685 86.3601784,40.1944704 85.6517491,40.0208997 C85.5869931,40.0053603 85.5238803,39.9988123 85.4625118,40.0001755 Z M90.2188987,42.1333333 C89.4719304,42.1774822 88.9598238,42.9137762 88.8868199,43.6013166 C88.7879666,44.0971864 89.05556,44.7604127 89.6282771,44.8 C90.4268547,44.7902755 90.9716436,43.9472689 90.9942788,43.2219031 C91.044791,42.7421654 90.7587377,42.1598219 90.2188987,42.1333333 Z M83.8071932,42.1333625 C83.4887812,42.1306215 83.1756215,42.3214492 83.0715672,42.6452963 C82.7939677,43.5115929 83.3514236,44.6087545 84.2684769,44.7908033 C84.6512083,44.8563328 84.9875035,44.5622566 85.0823997,44.2084254 C85.2835116,43.4516173 84.8704355,42.5728556 84.1713645,42.2293121 C84.0574727,42.1653604 83.9317892,42.134435 83.8071932,42.1333625 Z M87.20936,43.7333375 C86.5917158,43.7346564 85.9643854,44.0485001 85.5644464,44.5156789 C85.1324829,45.0601972 84.7786305,45.6938502 84.640196,46.381031 C84.4720143,46.8756969 84.853193,47.4449759 85.3812779,47.4484069 C86.0165933,47.4660776 86.5626033,47.0292412 87.1943462,46.9968017 C87.7303293,46.9149869 88.2102525,47.1941408 88.6921244,47.3768476 C89.1024085,47.5525597 89.6693493,47.4852223 89.8788163,47.0431047 C90.043581,46.5924626 89.8010635,46.111944 89.6001599,45.7117412 C89.1903966,45.0621609 88.751409,44.3794483 88.0795607,43.9738729 C87.810265,43.8067354 87.5110002,43.7326934 87.20936,43.7333375 Z" id="path1575-copy-4"></path>
            <path d="M56.4538912,61.0000566 C56.4369358,61.0002513 56.4195432,61.0009997 56.4022646,61.002219 C55.7140974,61.1091856 55.3357165,61.7644757 55.2808876,62.3423289 C55.200769,62.8666772 55.4573698,63.5406196 56.0967074,63.6581125 C56.1894431,63.6740118 56.2858018,63.6667455 56.3764513,63.6445979 C57.146324,63.4121308 57.4908504,62.5910533 57.3795675,61.9109422 C57.3472184,61.4716864 56.9795103,60.9940204 56.4538912,61.0000566 Z M53.4625118,61.0001755 C53.0329323,61.0097179 52.6983,61.4039869 52.6302293,61.774608 C52.4867291,62.5088887 52.8558357,63.4212365 53.7011678,63.6534249 C53.7803476,63.6690078 53.8622485,63.6706125 53.9422344,63.6594241 C54.5135893,63.5732548 54.7556318,62.9935631 54.7317276,62.5255894 C54.7145309,61.9082685 54.3601784,61.1944704 53.6517491,61.0208997 C53.5869931,61.0053603 53.5238803,60.9988123 53.4625118,61.0001755 Z M58.2188987,63.1333333 C57.4719304,63.1774822 56.9598238,63.9137762 56.8868199,64.6013166 C56.7879666,65.0971864 57.05556,65.7604127 57.6282771,65.8 C58.4268547,65.7902755 58.9716436,64.9472689 58.9942788,64.2219031 C59.044791,63.7421654 58.7587377,63.1598219 58.2188987,63.1333333 Z M51.8071932,63.1333625 C51.4887812,63.1306215 51.1756215,63.3214492 51.0715672,63.6452963 C50.7939677,64.5115929 51.3514236,65.6087545 52.2684769,65.7908033 C52.6512083,65.8563328 52.9875035,65.5622566 53.0823997,65.2084254 C53.2835116,64.4516173 52.8704355,63.5728556 52.1713645,63.2293121 C52.0574727,63.1653604 51.9317892,63.134435 51.8071932,63.1333625 Z M55.20936,64.7333375 C54.5917158,64.7346564 53.9643854,65.0485001 53.5644464,65.5156789 C53.1324829,66.0601972 52.7786305,66.6938502 52.640196,67.381031 C52.4720143,67.8756969 52.853193,68.4449759 53.3812779,68.4484069 C54.0165933,68.4660776 54.5626033,68.0292412 55.1943462,67.9968017 C55.7303293,67.9149869 56.2102525,68.1941408 56.6921244,68.3768476 C57.1024085,68.5525597 57.6693493,68.4852223 57.8788163,68.0431047 C58.043581,67.5924626 57.8010635,67.111944 57.6001599,66.7117412 C57.1903966,66.0621609 56.751409,65.3794483 56.0795607,64.9738729 C55.810265,64.8067354 55.5110002,64.7326934 55.20936,64.7333375 Z" id="path1575-copy-5"></path>
            <path d="M26.4538912,25.0000566 C26.4369358,25.0002513 26.4195432,25.0009997 26.4022646,25.002219 C25.7140974,25.1091856 25.3357165,25.7644757 25.2808876,26.3423289 C25.200769,26.8666772 25.4573698,27.5406196 26.0967074,27.6581125 C26.1894431,27.6740118 26.2858018,27.6667455 26.3764513,27.6445979 C27.146324,27.4121308 27.4908504,26.5910533 27.3795675,25.9109422 C27.3472184,25.4716864 26.9795103,24.9940204 26.4538912,25.0000566 Z M23.4625118,25.0001755 C23.0329323,25.0097179 22.6983,25.4039869 22.6302293,25.774608 C22.4867291,26.5088887 22.8558357,27.4212365 23.7011678,27.6534249 C23.7803476,27.6690078 23.8622485,27.6706125 23.9422344,27.6594241 C24.5135893,27.5732548 24.7556318,26.9935631 24.7317276,26.5255894 C24.7145309,25.9082685 24.3601784,25.1944704 23.6517491,25.0208997 C23.5869931,25.0053603 23.5238803,24.9988123 23.4625118,25.0001755 Z M28.2188987,27.1333333 C27.4719304,27.1774822 26.9598238,27.9137762 26.8868199,28.6013166 C26.7879666,29.0971864 27.05556,29.7604127 27.6282771,29.8 C28.4268547,29.7902755 28.9716436,28.9472689 28.9942788,28.2219031 C29.044791,27.7421654 28.7587377,27.1598219 28.2188987,27.1333333 Z M21.8071932,27.1333625 C21.4887812,27.1306215 21.1756215,27.3214492 21.0715672,27.6452963 C20.7939677,28.5115929 21.3514236,29.6087545 22.2684769,29.7908033 C22.6512083,29.8563328 22.9875035,29.5622566 23.0823997,29.2084254 C23.2835116,28.4516173 22.8704355,27.5728556 22.1713645,27.2293121 C22.0574727,27.1653604 21.9317892,27.134435 21.8071932,27.1333625 Z M25.20936,28.7333375 C24.5917158,28.7346564 23.9643854,29.0485001 23.5644464,29.5156789 C23.1324829,30.0601972 22.7786305,30.6938502 22.640196,31.381031 C22.4720143,31.8756969 22.853193,32.4449759 23.3812779,32.4484069 C24.0165933,32.4660776 24.5626033,32.0292412 25.1943462,31.9968017 C25.7303293,31.9149869 26.2102525,32.1941408 26.6921244,32.3768476 C27.1024085,32.5525597 27.6693493,32.4852223 27.8788163,32.0431047 C28.043581,31.5924626 27.8010635,31.111944 27.6001599,30.7117412 C27.1903966,30.0621609 26.751409,29.3794483 26.0795607,28.9738729 C25.810265,28.8067354 25.5110002,28.7326934 25.20936,28.7333375 Z" id="path1575-copy-8"></path>
            <path d="M6.45389119,45.0000566 C6.43693578,45.0002513 6.41954315,45.0009997 6.40226463,45.002219 C5.71409741,45.1091856 5.33571647,45.7644757 5.28088762,46.3423289 C5.20076895,46.8666772 5.45736979,47.5406196 6.0967074,47.6581125 C6.18944312,47.6740118 6.28580182,47.6667455 6.37645135,47.6445979 C7.14632397,47.4121308 7.49085037,46.5910533 7.37956751,45.9109422 C7.34721844,45.4716864 6.97951033,44.9940204 6.45389119,45.0000566 Z M3.46251184,45.0001755 C3.03293228,45.0097179 2.69830003,45.4039869 2.63022933,45.774608 C2.48672912,46.5088887 2.85583567,47.4212365 3.70116779,47.6534249 C3.78034757,47.6690078 3.86224851,47.6706125 3.94223442,47.6594241 C4.51358931,47.5732548 4.75563177,46.9935631 4.7317276,46.5255894 C4.71453087,45.9082685 4.36017837,45.1944704 3.65174914,45.0208997 C3.58699305,45.0053603 3.52388027,44.9988123 3.46251184,45.0001755 Z M8.2188987,47.1333333 C7.47193043,47.1774822 6.95982383,47.9137762 6.88681985,48.6013166 C6.78796664,49.0971864 7.05556001,49.7604127 7.62827711,49.8 C8.42685468,49.7902755 8.97164355,48.9472689 8.99427884,48.2219031 C9.04479097,47.7421654 8.75873773,47.1598219 8.2188987,47.1333333 Z M1.80719323,47.1333625 C1.48878121,47.1306215 1.1756215,47.3214492 1.0715672,47.6452963 C0.793967673,48.5115929 1.35142362,49.6087545 2.26847687,49.7908033 C2.65120829,49.8563328 2.98750349,49.5622566 3.08239973,49.2084254 C3.28351163,48.4516173 2.87043552,47.5728556 2.17136453,47.2293121 C2.05747268,47.1653604 1.93178922,47.134435 1.80719323,47.1333625 Z M5.20935999,48.7333375 C4.59171576,48.7346564 3.96438543,49.0485001 3.56444641,49.5156789 C3.13248286,50.0601972 2.77863054,50.6938502 2.64019595,51.381031 C2.47201432,51.8756969 2.85319303,52.4449759 3.38127787,52.4484069 C4.01659334,52.4660776 4.56260327,52.0292412 5.19434618,51.9968017 C5.73032929,51.9149869 6.21025249,52.1941408 6.69212437,52.3768476 C7.10240846,52.5525597 7.66934933,52.4852223 7.87881632,52.0431047 C8.04358105,51.5924626 7.80106349,51.111944 7.60015991,50.7117412 C7.19039662,50.0621609 6.751409,49.3794483 6.07956072,48.9738729 C5.81026505,48.8067354 5.51100017,48.7326934 5.20935999,48.7333375 Z" id="path1575-copy-9"></path>
            <path d="M39.4538912,80.0000566 C39.4369358,80.0002513 39.4195432,80.0009997 39.4022646,80.002219 C38.7140974,80.1091856 38.3357165,80.7644757 38.2808876,81.3423289 C38.200769,81.8666772 38.4573698,82.5406196 39.0967074,82.6581125 C39.1894431,82.6740118 39.2858018,82.6667455 39.3764513,82.6445979 C40.146324,82.4121308 40.4908504,81.5910533 40.3795675,80.9109422 C40.3472184,80.4716864 39.9795103,79.9940204 39.4538912,80.0000566 Z M36.4625118,80.0001755 C36.0329323,80.0097179 35.6983,80.4039869 35.6302293,80.774608 C35.4867291,81.5088887 35.8558357,82.4212365 36.7011678,82.6534249 C36.7803476,82.6690078 36.8622485,82.6706125 36.9422344,82.6594241 C37.5135893,82.5732548 37.7556318,81.9935631 37.7317276,81.5255894 C37.7145309,80.9082685 37.3601784,80.1944704 36.6517491,80.0208997 C36.5869931,80.0053603 36.5238803,79.9988123 36.4625118,80.0001755 Z M41.2188987,82.1333333 C40.4719304,82.1774822 39.9598238,82.9137762 39.8868199,83.6013166 C39.7879666,84.0971864 40.05556,84.7604127 40.6282771,84.8 C41.4268547,84.7902755 41.9716436,83.9472689 41.9942788,83.2219031 C42.044791,82.7421654 41.7587377,82.1598219 41.2188987,82.1333333 Z M34.8071932,82.1333625 C34.4887812,82.1306215 34.1756215,82.3214492 34.0715672,82.6452963 C33.7939677,83.5115929 34.3514236,84.6087545 35.2684769,84.7908033 C35.6512083,84.8563328 35.9875035,84.5622566 36.0823997,84.2084254 C36.2835116,83.4516173 35.8704355,82.5728556 35.1713645,82.2293121 C35.0574727,82.1653604 34.9317892,82.134435 34.8071932,82.1333625 Z M38.20936,83.7333375 C37.5917158,83.7346564 36.9643854,84.0485001 36.5644464,84.5156789 C36.1324829,85.0601972 35.7786305,85.6938502 35.640196,86.381031 C35.4720143,86.8756969 35.853193,87.4449759 36.3812779,87.4484069 C37.0165933,87.4660776 37.5626033,87.0292412 38.1943462,86.9968017 C38.7303293,86.9149869 39.2102525,87.1941408 39.6921244,87.3768476 C40.1024085,87.5525597 40.6693493,87.4852223 40.8788163,87.0431047 C41.043581,86.5924626 40.8010635,86.111944 40.6001599,85.7117412 C40.1903966,85.0621609 39.751409,84.3794483 39.0795607,83.9738729 C38.810265,83.8067354 38.5110002,83.7326934 38.20936,83.7333375 Z" id="path1575-copy-10"></path>
            <path d="M11.4538912,77.0000566 C11.4369358,77.0002513 11.4195432,77.0009997 11.4022646,77.002219 C10.7140974,77.1091856 10.3357165,77.7644757 10.2808876,78.3423289 C10.200769,78.8666772 10.4573698,79.5406196 11.0967074,79.6581125 C11.1894431,79.6740118 11.2858018,79.6667455 11.3764513,79.6445979 C12.146324,79.4121308 12.4908504,78.5910533 12.3795675,77.9109422 C12.3472184,77.4716864 11.9795103,76.9940204 11.4538912,77.0000566 Z M8.46251184,77.0001755 C8.03293228,77.0097179 7.69830003,77.4039869 7.63022933,77.774608 C7.48672912,78.5088887 7.85583567,79.4212365 8.70116779,79.6534249 C8.78034757,79.6690078 8.86224851,79.6706125 8.94223442,79.6594241 C9.51358931,79.5732548 9.75563177,78.9935631 9.7317276,78.5255894 C9.71453087,77.9082685 9.36017837,77.1944704 8.65174914,77.0208997 C8.58699305,77.0053603 8.52388027,76.9988123 8.46251184,77.0001755 Z M13.2188987,79.1333333 C12.4719304,79.1774822 11.9598238,79.9137762 11.8868199,80.6013166 C11.7879666,81.0971864 12.05556,81.7604127 12.6282771,81.8 C13.4268547,81.7902755 13.9716436,80.9472689 13.9942788,80.2219031 C14.044791,79.7421654 13.7587377,79.1598219 13.2188987,79.1333333 Z M6.80719323,79.1333625 C6.48878121,79.1306215 6.1756215,79.3214492 6.0715672,79.6452963 C5.79396767,80.5115929 6.35142362,81.6087545 7.26847687,81.7908033 C7.65120829,81.8563328 7.98750349,81.5622566 8.08239973,81.2084254 C8.28351163,80.4516173 7.87043552,79.5728556 7.17136453,79.2293121 C7.05747268,79.1653604 6.93178922,79.134435 6.80719323,79.1333625 Z M10.20936,80.7333375 C9.59171576,80.7346564 8.96438543,81.0485001 8.56444641,81.5156789 C8.13248286,82.0601972 7.77863054,82.6938502 7.64019595,83.381031 C7.47201432,83.8756969 7.85319303,84.4449759 8.38127787,84.4484069 C9.01659334,84.4660776 9.56260327,84.0292412 10.1943462,83.9968017 C10.7303293,83.9149869 11.2102525,84.1941408 11.6921244,84.3768476 C12.1024085,84.5525597 12.6693493,84.4852223 12.8788163,84.0431047 C13.043581,83.5924626 12.8010635,83.111944 12.6001599,82.7117412 C12.1903966,82.0621609 11.751409,81.3794483 11.0795607,80.9738729 C10.810265,80.8067354 10.5110002,80.7326934 10.20936,80.7333375 Z" id="path1575-copy-6"></path>
            <path d="M62.4538912,5.66225748e-05 C62.4369358,0.000251338779 62.4195432,0.000999726975 62.4022646,0.00221896214 C61.7140974,0.109185576 61.3357165,0.76447566 61.2808876,1.34232891 C61.200769,1.86667722 61.4573698,2.54061965 62.0967074,2.65811253 C62.1894431,2.67401178 62.2858018,2.66674545 62.3764513,2.64459791 C63.146324,2.41213084 63.4908504,1.59105331 63.3795675,0.910942163 C63.3472184,0.47168639 62.9795103,-0.00597957945 62.4538912,5.66225748e-05 Z M59.4625118,0.000175488641 C59.0329323,0.0097179057 58.6983,0.403986857 58.6302293,0.774608011 C58.4867291,1.50888872 58.8558357,2.42123655 59.7011678,2.65342494 C59.7803476,2.66900783 59.8622485,2.67061254 59.9422344,2.65942407 C60.5135893,2.57325481 60.7556318,1.99356306 60.7317276,1.52558941 C60.7145309,0.90826852 60.3601784,0.194470356 59.6517491,0.0208997393 C59.5869931,0.00536025984 59.5238803,-0.0011877133 59.4625118,0.000175488641 Z M64.2188987,2.13333333 C63.4719304,2.17748223 62.9598238,2.91377618 62.8868199,3.60131658 C62.7879666,4.09718636 63.05556,4.76041269 63.6282771,4.8 C64.4268547,4.79027552 64.9716436,3.94726894 64.9942788,3.22190305 C65.044791,2.74216541 64.7587377,2.1598219 64.2188987,2.13333333 Z M57.8071932,2.13336247 C57.4887812,2.13062146 57.1756215,2.32144923 57.0715672,2.64529634 C56.7939677,3.51159291 57.3514236,4.60875453 58.2684769,4.79080332 C58.6512083,4.8563328 58.9875035,4.5622566 59.0823997,4.2084254 C59.2835116,3.45161734 58.8704355,2.57285557 58.1713645,2.22931211 C58.0574727,2.16536038 57.9317892,2.13443496 57.8071932,2.13336247 Z M61.20936,3.7333375 C60.5917158,3.7346564 59.9643854,4.04850007 59.5644464,4.51567891 C59.1324829,5.0601972 58.7786305,5.69385021 58.640196,6.38103101 C58.4720143,6.87569689 58.853193,7.44497589 59.3812779,7.44840688 C60.0165933,7.46607758 60.5626033,7.02924122 61.1943462,6.99680165 C61.7303293,6.9149869 62.2102525,7.19414075 62.6921244,7.3768476 C63.1024085,7.55255968 63.6693493,7.48522227 63.8788163,7.04310472 C64.043581,6.59246259 63.8010635,6.11194405 63.6001599,5.71174123 C63.1903966,5.06216093 62.751409,4.37944832 62.0795607,3.97387291 C61.810265,3.80673543 61.5110002,3.73269344 61.20936,3.7333375 Z" id="path1575-copy-7"></path>
        </g>
    </g>
</svg>