<?xml version="1.0" encoding="UTF-8"?>
<svg width="160px" height="160px" viewBox="0 0 160 160" version="1.1" xmlns="http://www.w3.org/2000/svg" xmlns:xlink="http://www.w3.org/1999/xlink">
    <!-- Generator: Sketch 55 (78076) - https://sketchapp.com -->
    <title>Group</title>
    <desc>Created with Sketch.</desc>
    <g id="Page-1" stroke="none" stroke-width="1" fill="none" fill-rule="evenodd">
        <g id="Group">
            <circle id="Oval" fill="#4D716D" cx="80" cy="80" r="80"></circle>
            <path d="M80,84.0234375 C76.9537361,84.0234375 74.0962792,83.4440162 71.4275437,82.2851562 C68.7588082,81.1262963 66.4285814,79.5507912 64.4367934,77.5585938 C62.4450055,75.5663963 60.8763332,73.2356904 59.7307297,70.5664062 C58.5851262,67.8971221 58.012333,65.0520984 58.012333,62.03125 C58.012333,58.9843598 58.5851262,56.1263154 59.7307297,53.4570312 C60.8763332,50.7877471 62.4450055,48.4570412 64.4367934,46.4648438 C66.4285814,44.4726463 68.7588082,42.8971412 71.4275437,41.7382812 C74.0962792,40.5794213 76.9537361,40 80,40 C83.0202275,40 85.8646663,40.5794213 88.5334018,41.7382812 C91.2021374,42.8971412 93.5323641,44.4726463 95.5241521,46.4648438 C97.5159401,48.4570412 99.0911213,50.7877471 100.249743,53.4570312 C101.408365,56.1263154 101.987667,58.9843598 101.987667,62.03125 C101.987667,65.0520984 101.408365,67.8971221 100.249743,70.5664062 C99.0911213,73.2356904 97.5159401,75.5663963 95.5241521,77.5585938 C93.5323641,79.5507912 91.2021374,81.1262963 88.5334018,82.2851562 C85.8646663,83.4440162 83.0202275,84.0234375 80,84.0234375 Z M80,44.0234375 C77.5265378,44.0234375 75.196311,44.4921828 73.0092497,45.4296875 C70.8221884,46.3671922 68.9150475,47.6497314 67.2877698,49.2773438 C65.660492,50.9049561 64.3717074,52.8124891 63.4213772,55 C62.471047,57.1875109 61.995889,59.5312375 61.995889,62.03125 C61.995889,64.5052207 62.471047,66.8359266 63.4213772,69.0234375 C64.3717074,71.2109484 65.660492,73.1184814 67.2877698,74.7460938 C68.9150475,76.3737061 70.8221884,77.6562453 73.0092497,78.59375 C75.196311,79.5312547 77.5265378,80 80,80 C82.4734622,80 84.803689,79.5312547 86.9907503,78.59375 C89.1778116,77.6562453 91.0849525,76.3737061 92.7122302,74.7460938 C94.339508,73.1184814 95.6282926,71.2109484 96.5786228,69.0234375 C97.528953,66.8359266 98.004111,64.5052207 98.004111,62.03125 C98.004111,59.5312375 97.528953,57.1875109 96.5786228,55 C95.6282926,52.8124891 94.339508,50.9049561 92.7122302,49.2773438 C91.0849525,47.6497314 89.1778116,46.3671922 86.9907503,45.4296875 C84.803689,44.4921828 82.4734622,44.0234375 80,44.0234375 Z M111.985612,120 L48.0143885,120 C46.3480561,120 44.9290912,119.414068 43.7574512,118.242188 C42.5858112,117.070307 42,115.664071 42,114.023438 C42,113.945312 42.0260361,113.515629 42.0781089,112.734375 C42.1301818,111.953121 42.3124342,110.950527 42.6248715,109.726562 C42.9373089,108.502598 43.4254849,107.115893 44.0894142,105.566406 C44.7533435,104.016919 45.6841324,102.434904 46.8818088,100.820312 C47.6108293,99.8828078 48.3919109,98.9908896 49.2250771,98.1445312 C50.0582433,97.2981729 50.9499781,96.50391 51.9003083,95.7617188 C52.8506385,95.0195275 53.8660446,94.3294303 54.946557,93.6914062 C56.0270695,93.0533822 57.1661468,92.4739609 58.3638232,91.953125 C59.8218641,91.3020801 61.3710093,90.7291691 63.0113052,90.234375 C64.6516012,89.7395809 66.3764898,89.3294287 68.1860226,89.0039062 C69.9955555,88.6783838 71.8831693,88.4309904 73.8489209,88.2617188 C75.8146724,88.0924471 77.8650116,88.0078125 80,88.0078125 C82.108952,88.0078125 84.1527822,88.0924471 86.1315519,88.2617188 C88.1103216,88.4309904 89.9979355,88.6783838 91.7944502,89.0039062 C93.5909648,89.3294287 95.3093443,89.7395809 96.9496403,90.234375 C98.5899363,90.7291691 100.139081,91.3020801 101.597122,91.953125 C102.794799,92.4739609 103.933876,93.0533822 105.014388,93.6914062 C106.094901,94.3294303 107.116816,95.0195275 108.080164,95.7617188 C109.043513,96.50391 109.941757,97.2981729 110.774923,98.1445312 C111.608089,98.9908896 112.376153,99.8828078 113.079137,100.820312 C114.30285,102.434904 115.240147,104.016919 115.891059,105.566406 C116.54197,107.115893 117.023637,108.502598 117.336074,109.726562 C117.648511,110.950527 117.837273,111.953121 117.902364,112.734375 C117.967455,113.515629 118,113.945312 118,114.023438 C118,115.664071 117.414189,117.070307 116.242549,118.242188 C115.070909,119.414068 113.651944,120 111.985612,120 Z M80,92.03125 C76.5111165,92.03125 73.2566098,92.2656227 70.2363823,92.734375 C67.2161548,93.2031273 64.4563332,93.899735 61.9568345,94.8242188 C59.4573359,95.7487025 57.2247443,96.9010348 55.2589928,98.28125 C53.2932413,99.6614652 51.6204249,101.249991 50.2404933,103.046875 C49.1990356,104.401048 48.3919179,105.72916 47.8191161,107.03125 C47.2463144,108.33334 46.8232285,109.498693 46.5498458,110.527344 C46.2764632,111.555995 46.1137378,112.38932 46.061665,113.027344 C46.0095921,113.665368 45.983556,113.997396 45.983556,114.023438 C45.983556,114.570315 46.1788264,115.039061 46.5693731,115.429688 C46.9599197,115.820314 47.4415867,116.015625 48.0143885,116.015625 L111.985612,116.015625 C112.532377,116.015625 113.001026,115.820314 113.391572,115.429688 C113.782119,115.039061 113.97739,114.570315 113.97739,114.023438 C113.97739,113.997396 113.951353,113.665368 113.899281,113.027344 C113.847208,112.38932 113.684482,111.555995 113.4111,110.527344 C113.137717,109.498693 112.72114,108.33334 112.161357,107.03125 C111.601573,105.72916 110.800964,104.401048 109.759507,103.046875 C108.379575,101.249991 106.706759,99.6614652 104.741007,98.28125 C102.775256,96.9010348 100.536155,95.7487025 98.0236382,94.8242188 C95.5111214,93.899735 92.7512997,93.2031273 89.7440904,92.734375 C86.7368812,92.2656227 83.4888835,92.03125 80,92.03125 Z" id="" fill="#FFFFFF" fill-rule="nonzero"></path>
        </g>
    </g>
</svg>